<?xml version="1.0" encoding="utf-8"?>
<!-- Svg Vector Icons : http://www.onlinewebfonts.com/icon -->
<!DOCTYPE svg PUBLIC "-//W3C//DTD SVG 1.1//EN" "http://www.w3.org/Graphics/SVG/1.1/DTD/svg11.dtd">
<svg version="1.1" xmlns="http://www.w3.org/2000/svg" xmlns:xlink="http://www.w3.org/1999/xlink" x="0px" y="0px" viewBox="0 0 1000 1000" enable-background="new 0 0 1000 1000" xml:space="preserve">
<metadata> Svg Vector Icons : http://www.onlinewebfonts.com/icon </metadata>
<g><path d="M384.5,451.9c15.2,15.2,32.9,27.1,52.6,35.5c20.4,8.6,42.1,13,64.5,13c22.3,0,44-4.4,64.5-13c19.7-8.3,37.4-20.3,52.6-35.5c15.2-15.2,27.1-32.9,35.5-52.6c8.6-20.4,13-42.1,13-64.4c0-22.3-4.4-44-13-64.5c-8.3-19.7-20.3-37.4-35.5-52.6c-15.2-15.2-32.9-27.1-52.6-35.5c-20.4-8.6-42.1-13-64.5-13c-22.3,0-44,4.4-64.5,13c-19.7,8.3-37.4,20.3-52.6,35.5c-15.2,15.2-27.1,32.9-35.5,52.6c-8.6,20.4-13,42.1-13,64.5c0,22.3,4.4,44,13,64.4C357.3,419,369.3,436.7,384.5,451.9z"/><path d="M732.1,523.4c-21-21-44.4-38.8-69.9-53.2c-3.8,4.6-7.9,9-12.1,13.2c-19.3,19.3-41.8,34.4-66.8,45c-25.9,11-53.5,16.5-81.8,16.5c-28.4,0-55.9-5.6-81.8-16.5c-25-10.6-47.5-25.7-66.8-45c-4.3-4.3-8.3-8.7-12.1-13.2c-25.5,14.4-48.9,32.2-69.9,53.2c-29.9,29.9-53.4,64.8-69.9,103.6c-17,40.2-25.7,83-25.7,127c0,26.1,3,51.8,9.1,76.7h634.1c6-25,9.1-50.6,9.1-76.7c0-44-8.6-86.7-25.6-127C785.5,588.2,762,553.3,732.1,523.4z"/><path d="M969.2,594c-13.3-31.5-32.4-59.7-56.6-84c-17-17-35.9-31.4-56.6-43.1c-3.1,3.7-6.4,7.3-9.8,10.7c-15.6,15.6-33.8,27.9-54.1,36.5c-7.1,3-14.4,5.5-21.7,7.5c45,42.7,85.1,115.1,88.8,237.5h123.5c4.9-20.2,7.3-41,7.3-62.2C990,661.2,983,626.6,969.2,594z"/><path d="M737.7,490.8c13.9-1.2,27.4-4.6,40.3-10c16-6.8,30.3-16.4,42.6-28.7c12.3-12.3,22-26.7,28.7-42.6c7-16.6,10.5-34.1,10.5-52.2c0-18.1-3.5-35.7-10.5-52.2c-6.8-16-16.4-30.3-28.7-42.6c-12.3-12.3-26.7-22-42.6-28.7c-16.6-7-34.1-10.7-52.2-10.6c-16.3,0.1-31.2,1.3-47.7,8.3c-3.4,1.4-6.6,3-9.9,4.7c19,28.7,53.5,112.8-1,203.4C698.6,455.1,719.5,475.7,737.7,490.8z"/><path d="M30.8,598.4c13.3-31.5,32.4-59.7,56.6-84c17-17,35.9-31.4,56.6-43.1c3.1,3.7,6.4,7.3,9.8,10.7c15.6,15.6,33.8,27.9,54.1,36.5c7.1,3,14.4,5.5,21.7,7.5c-45,42.7-85.1,115.1-88.8,237.5H17.4c-4.9-20.2-7.4-41-7.4-62.2C10,665.6,17,631,30.8,598.4z"/><path d="M262.3,495.3c-13.9-1.2-27.4-4.6-40.3-10c-16-6.8-30.3-16.4-42.6-28.7c-12.3-12.3-22-26.7-28.7-42.6c-7-16.5-10.6-34.1-10.6-52.2c0-18.1,3.6-35.7,10.6-52.2c6.8-16,16.4-30.3,28.7-42.6c12.3-12.3,26.6-22,42.6-28.7c16.6-7,34.1-10.7,52.2-10.6c16.3,0.1,31.2,1.3,47.7,8.3c3.4,1.4,6.6,3,9.8,4.7c-19,28.7-53.5,112.8,1,203.4C301.4,459.6,280.5,480.2,262.3,495.3z"/></g>
</svg>